# xmcd CD database file
#
# Track frame offsets:
#	150
#	11301
#	23276
#	32920
#	42993
#	56211
#	68375
#	83281
#	93651
#	108816
#	120624
#	133819
#	145466
#	157569
#	167509
#	179089
#
# Disc length: 2559 seconds
#
# Revision: 0
# Processed by: cddbd v1.5.2PL0 Copyright (c) Steve Scherf et al.
# Submitted via: CDex 1.51
#
DISCID=bf09fd10
DTITLE=Rob Ryan - Highway Man
DYEAR=2008
DGENRE=Country
TTITLE0=Highway Man
TTITLE1=Truck Driving Man
TTITLE2=Old Fashioned Love
TTITLE3=Rollin With Jesus
TTITLE4=Paid For Wasting Time
TTITLE5=I Thought You Knew
TTITLE6=Full Time Drinking Man
TTITLE7=I Like Em Young
TTITLE8=The Older I Get
TTITLE9=Thank You Jesus
TTITLE10=Blue Collar Song
TTITLE11=Still Want You
TTITLE12=Miss Molly
TTITLE13=Fathers Song
TTITLE14=Hear It From You First
TTITLE15=Thank You Jesus
EXTD=YEAR: 2008
EXTT0=
EXTT1=
EXTT2=
EXTT3=
EXTT4=
EXTT5=
EXTT6=
EXTT7=
EXTT8=
EXTT9=
EXTT10=
EXTT11=
EXTT12=
EXTT13=
EXTT14=
EXTT15=
PLAYORDER=
